<svg xmlns="http://www.w3.org/2000/svg" xmlns:xlink="http://www.w3.org/1999/xlink" width="500" zoomAndPan="magnify" viewBox="0 0 375 374.999991" height="500" preserveAspectRatio="xMidYMid meet" version="1.0"><defs><g/><clipPath id="b014840063"><path d="M 87 82.710938 L 272 82.710938 L 272 186 L 87 186 Z M 87 82.710938 " clip-rule="nonzero"/></clipPath><clipPath id="e57c641e17"><path d="M 291.480469 179.367188 L 302.660156 179.367188 L 302.660156 191.300781 L 291.480469 191.300781 Z M 291.480469 179.367188 " clip-rule="nonzero"/></clipPath><clipPath id="4e8b0a4ff2"><path d="M 278.59375 176.226562 L 302.660156 176.226562 L 302.660156 200.71875 L 278.59375 200.71875 Z M 278.59375 176.226562 " clip-rule="nonzero"/></clipPath><clipPath id="45041d5f3a"><path d="M 148.457031 268.863281 L 242.757812 268.863281 L 242.757812 276.203125 L 148.457031 276.203125 Z M 148.457031 268.863281 " clip-rule="nonzero"/></clipPath></defs><g clip-path="url(#b014840063)"><path fill="#2b7929" d="M 271.300781 156.996094 C 247.652344 133.878906 226.277344 109.773438 205.945312 83.703125 C 205.207031 82.757812 203.917969 82.710938 203.101562 83.582031 C 168.632812 120.21875 130.179688 153.691406 88.539062 181.980469 C 86.546875 183.335938 88.726562 186.441406 90.699219 185.039062 C 131.652344 155.941406 169.605469 123.75 204.328125 87.453125 C 224.355469 113.257812 245.535156 136.96875 268.898438 159.847656 C 270.617188 161.53125 273.011719 158.667969 271.300781 156.996094 " fill-opacity="1" fill-rule="nonzero"/></g><g clip-path="url(#e57c641e17)"><path fill="#2b7929" d="M 302.144531 188.050781 C 299.597656 185.40625 297.050781 182.765625 294.5 180.125 C 292.898438 178.464844 290.558594 181.234375 292.179688 182.875 C 294.761719 185.480469 297.339844 188.082031 299.921875 190.6875 C 301.492188 192.273438 303.667969 189.628906 302.144531 188.050781 " fill-opacity="1" fill-rule="nonzero"/></g><path fill="#2b7929" d="M 277.328125 118.101562 C 272.015625 117.832031 267.03125 120.695312 263.667969 124.75 C 260.730469 122.421875 257.152344 121.128906 253.203125 120.992188 C 248.386719 120.832031 248.097656 128.375 252.925781 128.472656 C 256.679688 128.546875 259.304688 130.039062 261.550781 133.015625 C 262.867188 134.761719 266.355469 134.5 267.316406 132.492188 C 269.613281 127.699219 273.082031 125.996094 277.972656 124.671875 C 281.566406 123.695312 281.152344 118.300781 277.328125 118.101562 " fill-opacity="1" fill-rule="nonzero"/><path fill="#2b7929" d="M 258.386719 102.414062 C 254.75 102.738281 251.785156 104.296875 249.515625 106.929688 C 246.917969 105.007812 243.917969 104.140625 240.539062 104.363281 C 237.855469 104.539062 238.3125 108.414062 241.039062 108.039062 C 243.878906 107.648438 246.507812 108.835938 248.492188 110.804688 C 249.363281 111.664062 250.75 111.425781 251.386719 110.429688 C 253.007812 107.894531 255.355469 106.398438 258.386719 106.089844 C 260.710938 105.851562 260.757812 102.203125 258.386719 102.414062 " fill-opacity="1" fill-rule="nonzero"/><path fill="#2b7929" d="M 117.097656 170.933594 C 108.191406 178.148438 99.023438 184.839844 89.210938 190.539062 C 87.132812 191.746094 88.949219 195.046875 91.039062 193.804688 C 100.984375 187.890625 111.339844 180.464844 119.316406 173.238281 C 120.859375 171.839844 118.6875 169.648438 117.097656 170.933594 " fill-opacity="1" fill-rule="nonzero"/><g clip-path="url(#4e8b0a4ff2)"><path fill="#2b7929" d="M 302.101562 197.742188 C 295.667969 190.585938 288.328125 184.238281 281.96875 177.019531 C 280.375 175.214844 277.523438 178.039062 279.320312 179.667969 C 286.445312 186.132812 292.6875 193.558594 299.746094 200.097656 C 301.324219 201.558594 303.535156 199.335938 302.101562 197.742188 " fill-opacity="1" fill-rule="nonzero"/></g><path fill="#2b7929" d="M 259.875 158.675781 C 240.621094 138.46875 222.480469 117.265625 205.660156 94.996094 C 205.042969 94.179688 203.722656 93.699219 202.917969 94.640625 C 185.3125 115.296875 165.847656 133.746094 144.21875 150.164062 C 142.082031 151.785156 144.332031 154.769531 146.488281 153.101562 C 167.421875 136.910156 186.726562 118.578125 204.054688 98.582031 C 220.597656 120.492188 238.3125 141.402344 257.386719 161.160156 C 258.960938 162.792969 261.4375 160.3125 259.875 158.675781 " fill-opacity="1" fill-rule="nonzero"/><path fill="#2b7929" d="M 260.546875 223.105469 C 260.46875 220.851562 257 220.835938 257.027344 223.105469 C 257.140625 233.269531 257.386719 243.457031 257.757812 253.613281 C 257.839844 255.804688 261.203125 255.824219 261.183594 253.613281 C 261.101562 243.449219 260.886719 233.261719 260.546875 223.105469 " fill-opacity="1" fill-rule="nonzero"/><path fill="#2b7929" d="M 264.773438 227.328125 C 262.953125 229.921875 260.984375 232.386719 258.933594 234.792969 C 257.453125 232.742188 255.976562 230.695312 254.496094 228.652344 C 253.089844 226.707031 249.824219 228.617188 251.261719 230.539062 C 253.265625 233.226562 255.273438 235.910156 257.28125 238.597656 C 257.925781 239.460938 259.253906 239.902344 260.097656 238.960938 C 262.894531 235.839844 265.503906 232.582031 267.960938 229.191406 C 269.351562 227.273438 266.136719 225.390625 264.773438 227.328125 " fill-opacity="1" fill-rule="nonzero"/><path fill="#2b7929" d="M 274.621094 235.636719 C 269.488281 239.371094 264.511719 243.332031 259.507812 247.238281 C 255.246094 244.378906 251.007812 241.289062 247.1875 237.898438 C 245.179688 236.117188 242.683594 239.253906 244.914062 240.835938 C 249.550781 244.128906 254.085938 247.601562 258.660156 250.980469 C 259.34375 251.488281 260.238281 251.15625 260.820312 250.703125 C 266.105469 246.578125 271.472656 242.519531 276.625 238.230469 C 278.050781 237.042969 276.144531 234.53125 274.621094 235.636719 " fill-opacity="1" fill-rule="nonzero"/><path fill="#2b7929" d="M 259.5625 270.269531 C 251.730469 269.765625 248.242188 263.398438 249.3125 256.335938 C 256.179688 256.296875 263.011719 256.175781 269.859375 255.652344 C 270.652344 262.851562 268.472656 270.839844 259.5625 270.269531 Z M 273.191406 253.230469 C 273.078125 252.5 272.15625 251.824219 271.425781 251.886719 C 263.460938 252.578125 255.421875 253.003906 247.425781 252.609375 C 245.839844 252.53125 245.871094 254.074219 245.828125 255.316406 C 245.410156 267.113281 249.25 273.570312 260.257812 273.820312 C 271.984375 274.089844 274.6875 262.710938 273.191406 253.230469 " fill-opacity="1" fill-rule="nonzero"/><path fill="#2b7929" d="M 286.527344 220.300781 C 282.480469 222.179688 278.238281 219.605469 277.890625 215.15625 C 277.675781 212.449219 278.445312 210.269531 279.949219 208.84375 C 282.371094 206.554688 286.769531 205.875 289.421875 209.574219 C 292.027344 213.207031 290.511719 218.453125 286.527344 220.300781 Z M 293.089844 208.371094 C 290.796875 204.203125 286.859375 202.507812 282.371094 203.503906 C 274.996094 205.144531 273.304688 212.167969 274.519531 217.261719 C 275.964844 223.3125 282.589844 226.316406 288.195312 223.632812 C 293.804688 220.941406 296.101562 213.847656 293.089844 208.371094 " fill-opacity="1" fill-rule="nonzero"/><path fill="#2b7929" d="M 285.175781 210.84375 C 283.894531 210.355469 282.433594 211.035156 281.9375 212.226562 C 281.195312 213.117188 281.082031 214.429688 281.902344 215.417969 C 283.089844 216.84375 285.335938 216.492188 286.351562 215.058594 C 287.351562 213.640625 286.828125 211.476562 285.175781 210.84375 " fill-opacity="1" fill-rule="nonzero"/><path fill="#2b7929" d="M 286.117188 223.433594 C 286.199219 221.023438 282.269531 221.023438 282.375 223.433594 C 282.691406 230.832031 282.953125 238.417969 282.535156 245.8125 C 282.402344 248.152344 286.328125 248.148438 286.175781 245.8125 C 285.683594 238.421875 285.875 230.835938 286.117188 223.433594 " fill-opacity="1" fill-rule="nonzero"/><path fill="#2b7929" d="M 289.757812 265.234375 C 288.871094 266.882812 286.730469 268.609375 284.273438 268.226562 C 282.003906 267.875 280.417969 266 279.914062 262.179688 C 279.703125 260.613281 279.722656 258.949219 279.652344 257.378906 C 279.515625 254.316406 279.445312 251.25 279.367188 248.1875 C 283.328125 248.121094 287.292969 248.121094 291.257812 248.105469 C 291.683594 253.632812 292.285156 260.539062 289.757812 265.234375 Z M 294.824219 246.253906 C 294.769531 245.261719 294.027344 244.40625 292.976562 244.410156 C 287.753906 244.425781 282.527344 244.542969 277.304688 244.46875 C 275.765625 244.445312 275.53125 246.375 275.523438 247.566406 C 275.460938 255.011719 273.523438 273.789062 285.929688 272.417969 C 297.804688 271.101562 295.273438 254.085938 294.824219 246.253906 " fill-opacity="1" fill-rule="nonzero"/><path fill="#2b7929" d="M 111.019531 241.808594 C 104.90625 243.917969 91.054688 242.515625 85.628906 241.605469 C 81.839844 240.96875 78.75 240.421875 78.640625 237.605469 C 78.515625 234.277344 81.976562 233.882812 82.390625 231.1875 C 82.726562 229.015625 78.703125 227.375 80.445312 224.332031 C 82.039062 221.550781 85.949219 223.378906 86.117188 223.542969 C 87.511719 224.886719 89.722656 225.015625 89.730469 222.816406 C 89.765625 216.644531 89.738281 206.601562 96.707031 207.476562 C 102.558594 208.214844 103.078125 221.242188 103.425781 224.863281 C 103.535156 225.984375 104.539062 226.582031 105.589844 226.316406 C 112.605469 223.898438 116.019531 227.230469 117.257812 232.582031 C 118.3125 237.121094 115.988281 240.089844 111.019531 241.808594 Z M 106.628906 222.640625 C 106.335938 215.460938 105.023438 203.578125 96.261719 203.617188 C 87.464844 203.652344 86.082031 212.277344 85.96875 219.328125 C 83.484375 218.199219 80.6875 218.316406 78.417969 220.527344 C 75.199219 223.660156 76.027344 227.90625 78.058594 231.324219 C 74.070312 233.445312 72.632812 238.847656 76.710938 242.773438 C 79.515625 245.472656 85.34375 245.742188 88.960938 246.046875 C 96.8125 246.707031 103.546875 246.824219 109.425781 246.253906 C 129.09375 244.34375 122.707031 218.773438 106.628906 222.640625 " fill-opacity="1" fill-rule="nonzero"/><path fill="#2b7929" d="M 98.316406 244.796875 C 98.542969 242.632812 94.171875 242.75 94.636719 245.222656 C 95.011719 247.203125 94.785156 249.210938 94.820312 251.199219 C 94.855469 253.039062 94.9375 254.851562 94.902344 256.6875 C 94.867188 258.730469 98.675781 258.726562 98.597656 256.6875 C 98.441406 252.800781 97.914062 248.667969 98.316406 244.796875 " fill-opacity="1" fill-rule="nonzero"/><path fill="#2b7929" d="M 104.347656 267.683594 C 102.160156 269.367188 98.5 270.148438 95.792969 270.144531 C 92.578125 270.140625 89.550781 268.558594 87.789062 265.835938 C 86.566406 263.953125 86.070312 261.96875 85.78125 259.933594 C 92.925781 259.992188 100.507812 259.210938 107.71875 259.539062 C 107.601562 262.621094 106.921875 265.710938 104.347656 267.683594 Z M 109.589844 255.9375 C 105 255.648438 100.414062 255.488281 95.8125 255.664062 C 91.859375 255.8125 88.207031 255.589844 83.875 256.207031 C 81.515625 256.542969 81.867188 259.457031 82.125 261.183594 C 82.570312 264.15625 83.757812 267.398438 86.621094 270.203125 C 89.566406 273.085938 93.382812 274.125 97.414062 273.753906 C 106.886719 272.878906 111.609375 267.171875 111.394531 257.785156 C 111.371094 256.761719 110.609375 256 109.589844 255.9375 " fill-opacity="1" fill-rule="nonzero"/><path fill="#2b7929" d="M 133.863281 257.28125 C 130.589844 260.121094 125.582031 258.214844 124.609375 254.1875 C 123.292969 248.765625 127.367188 243.265625 132.933594 245.574219 C 137.359375 247.410156 137.167969 254.414062 133.863281 257.28125 Z M 135.527344 242.8125 C 130.613281 239.726562 125.609375 242.121094 122.589844 246.027344 C 120.535156 248.683594 120.027344 252.40625 121.3125 255.980469 C 123.457031 261.945312 131.136719 264.394531 136.132812 260.214844 C 141.246094 255.933594 141.398438 246.496094 135.527344 242.8125 " fill-opacity="1" fill-rule="nonzero"/><path fill="#2b7929" d="M 128.359375 261.902344 C 128.265625 265.117188 128.378906 268.417969 128.019531 271.613281 C 127.757812 273.90625 131.75 274.011719 131.667969 271.613281 C 131.5625 268.398438 131.941406 265.113281 132.105469 261.902344 C 132.226562 259.503906 128.425781 259.488281 128.359375 261.902344 " fill-opacity="1" fill-rule="nonzero"/><path fill="#2b7929" d="M 139.613281 261.433594 C 136.742188 262.703125 134.121094 264.558594 131.238281 265.78125 C 129.472656 266.53125 128.933594 266.210938 127.207031 265.328125 C 125.855469 264.636719 124.519531 263.921875 123.210938 263.144531 C 121.09375 261.886719 119.160156 265.417969 121.320312 266.375 C 123.964844 267.546875 127.292969 270.359375 130.292969 270.089844 C 131.769531 269.957031 133.121094 268.976562 134.394531 268.300781 C 136.738281 267.058594 139.140625 265.882812 141.386719 264.46875 C 143.34375 263.238281 141.644531 260.535156 139.613281 261.433594 " fill-opacity="1" fill-rule="nonzero"/><g clip-path="url(#45041d5f3a)"><path fill="#2b7929" d="M 241.464844 269.984375 C 234.261719 267.613281 228.515625 269.679688 221.378906 271.261719 C 211.578125 273.4375 203.34375 268.957031 193.746094 269.136719 C 190.609375 269.195312 187.960938 270.179688 184.992188 271.09375 C 178.863281 272.984375 174 272.328125 167.910156 270.761719 C 161.480469 269.113281 156.273438 268.320312 149.957031 270.769531 C 147.433594 271.753906 149.007812 275.476562 151.402344 274.191406 C 159.375 269.914062 167.261719 275.464844 175.210938 276.140625 C 182.457031 276.757812 188.03125 272.539062 195.175781 272.785156 C 202.074219 273.023438 208.484375 276.191406 215.464844 275.953125 C 224.195312 275.652344 231.539062 270.613281 240.472656 273.570312 C 242.75 274.320312 243.730469 270.734375 241.464844 269.984375 " fill-opacity="1" fill-rule="nonzero"/></g><path fill="#2b7929" d="M 129.582031 249.359375 C 128.238281 249.941406 127.628906 251.578125 128.046875 252.90625 C 128.246094 253.820312 128.863281 254.605469 129.941406 254.875 C 131.835938 255.347656 133.601562 253.734375 133.496094 251.84375 C 133.390625 249.914062 131.40625 248.574219 129.582031 249.359375 " fill-opacity="1" fill-rule="nonzero"/><g fill="#b87247" fill-opacity="1"><g transform="translate(106.680305, 212.012587)"><g><path d="M 10.789062 -53.511719 C 10.035156 -53.511719 9.875 -53.273438 9.875 -52.554688 L 9.875 -0.957031 C 9.875 -0.238281 10.035156 0 10.789062 0 L 12.980469 0 C 14.054688 0 15.011719 -0.835938 15.011719 -1.949219 L 15.011719 -20.066406 L 17.199219 -20.066406 C 21.820312 -20.066406 24.726562 -22.8125 24.726562 -26.4375 L 24.726562 -47.101562 C 24.726562 -50.761719 21.898438 -53.511719 17.359375 -53.511719 Z M 15.011719 -24.484375 L 15.011719 -49.089844 L 17.28125 -49.089844 C 18.871094 -49.089844 19.589844 -48.097656 19.589844 -47.0625 L 19.589844 -26.515625 C 19.589844 -25.519531 18.910156 -24.484375 17.480469 -24.484375 Z M 15.011719 -24.484375 "/></g></g></g><g fill="#b87247" fill-opacity="1"><g transform="translate(138.186658, 212.012587)"><g><path d="M 9.875 -0.957031 C 9.875 -0.277344 10.035156 0 10.789062 0 L 20.863281 0 C 21.460938 0 21.777344 -0.359375 21.777344 -1.035156 L 21.777344 -1.792969 C 21.777344 -3.542969 20.941406 -4.417969 19.429688 -4.417969 L 15.011719 -4.417969 L 15.011719 -51.558594 C 15.011719 -52.675781 14.054688 -53.511719 12.980469 -53.511719 L 10.789062 -53.511719 C 10.035156 -53.511719 9.875 -53.273438 9.875 -52.554688 Z M 9.875 -0.957031 "/></g></g></g><g fill="#b87247" fill-opacity="1"><g transform="translate(166.508104, 212.012587)"><g><path d="M 8.601562 -0.914062 L 8.601562 -0.675781 C 8.601562 -0.199219 8.757812 0 9.4375 0 L 11.863281 0 C 12.898438 0 13.777344 -0.757812 13.816406 -1.910156 L 14.292969 -9.15625 L 18.753906 -9.15625 L 19.230469 -1.910156 C 19.269531 -0.757812 20.144531 0 21.222656 0 L 23.648438 0 C 24.328125 0 24.445312 -0.199219 24.445312 -0.675781 L 24.445312 -0.914062 L 20.066406 -52.394531 C 19.988281 -53.351562 19.507812 -53.511719 18.554688 -53.511719 L 14.53125 -53.511719 C 13.617188 -53.511719 13.058594 -53.351562 12.980469 -52.394531 Z M 14.492188 -13.417969 L 16.523438 -45.984375 L 18.554688 -13.417969 Z M 14.492188 -13.417969 "/></g></g></g><g fill="#b87247" fill-opacity="1"><g transform="translate(197.337661, 212.012587)"><g><path d="M 12.941406 0 C 14.09375 0 15.050781 -0.796875 15.011719 -2.03125 L 14.292969 -33.085938 L 19.429688 -1.75 C 19.628906 -0.714844 20.425781 0 21.5 0 L 23.609375 0 C 24.328125 0 24.566406 -0.277344 24.566406 -0.957031 L 24.566406 -52.59375 C 24.566406 -53.273438 24.445312 -53.511719 23.648438 -53.511719 L 21.421875 -53.511719 C 20.34375 -53.511719 19.390625 -52.714844 19.429688 -51.519531 L 20.144531 -20.464844 L 14.96875 -51.800781 C 14.769531 -52.835938 14.015625 -53.511719 13.019531 -53.511719 L 10.789062 -53.511719 C 9.992188 -53.511719 9.875 -53.273438 9.875 -52.59375 L 9.875 -0.957031 C 9.875 -0.277344 10.113281 0 10.828125 0 Z M 12.941406 0 "/></g></g></g><g fill="#b87247" fill-opacity="1"><g transform="translate(229.480986, 212.012587)"><g><path d="M 9.4375 -53.511719 C 8.839844 -53.511719 8.519531 -53.152344 8.519531 -52.476562 L 8.519531 -51.71875 C 8.519531 -49.96875 9.394531 -49.089844 10.871094 -49.089844 L 13.417969 -49.089844 L 13.417969 -1.113281 C 13.417969 -0.320312 13.695312 0 14.492188 0 L 17.4375 0 C 18.195312 0 18.554688 -0.320312 18.554688 -1.113281 L 18.554688 -49.089844 L 20.902344 -49.089844 C 22.375 -49.089844 23.25 -49.96875 23.25 -51.71875 L 23.25 -52.476562 C 23.25 -53.152344 22.933594 -53.511719 22.335938 -53.511719 Z M 9.4375 -53.511719 "/></g></g></g><g fill="#b87247" fill-opacity="1"><g transform="translate(258.877343, 212.012587)"><g><path d="M 23.09375 -44.394531 C 23.09375 -44.832031 22.855469 -45.109375 22.175781 -45.109375 L 20.1875 -45.109375 C 19.152344 -45.109375 17.875 -44.472656 17.835938 -43.515625 L 15.804688 -23.09375 L 13.777344 -43.515625 C 13.695312 -44.472656 12.460938 -45.109375 11.386719 -45.109375 L 9.394531 -45.109375 C 8.71875 -45.109375 8.480469 -44.871094 8.480469 -44.472656 C 8.480469 -44.394531 8.480469 -44.273438 8.519531 -44.195312 L 13.21875 -14.890625 L 13.21875 -0.957031 C 13.21875 -0.320312 13.578125 0 14.375 0 L 17.199219 0 C 18.035156 0 18.355469 -0.320312 18.355469 -0.957031 L 18.355469 -14.890625 L 23.09375 -44.195312 Z M 23.09375 -44.394531 "/></g></g></g><g fill="#998763" fill-opacity="1"><g transform="translate(155.140451, 248.296619)"><g><path d="M 5.484375 -7.613281 C 4.964844 -7.613281 4.753906 -7.382812 4.753906 -6.921875 L 4.753906 -3.910156 C 4.753906 -1.515625 6.789062 0.460938 9.988281 0.460938 C 13.230469 0.460938 15.242188 -1.515625 15.242188 -3.910156 C 15.242188 -12.960938 9.011719 -11.484375 9.011719 -17.640625 C 9.011719 -17.984375 9.414062 -18.503906 9.988281 -18.503906 C 10.566406 -18.503906 11.003906 -18.042969 11.003906 -17.601562 L 11.003906 -14.765625 C 11.003906 -14.113281 11.714844 -13.726562 12.347656 -13.726562 L 14.515625 -13.726562 C 15.03125 -13.726562 15.242188 -13.996094 15.242188 -14.4375 L 15.242188 -17.792969 C 15.242188 -20.210938 13.113281 -22.183594 9.914062 -22.183594 C 6.808594 -22.183594 4.753906 -20.210938 4.753906 -17.792969 C 4.753906 -9.433594 11.003906 -10.046875 11.003906 -4.101562 C 11.003906 -3.679688 10.582031 -3.222656 9.988281 -3.222656 C 9.453125 -3.222656 9.011719 -3.679688 9.011719 -4.101562 L 9.011719 -6.597656 C 9.011719 -7.246094 8.265625 -7.613281 7.648438 -7.613281 Z M 5.484375 -7.613281 "/></g></g></g><g fill="#998763" fill-opacity="1"><g transform="translate(172.099477, 248.296619)"><g><path d="M 5.523438 -21.722656 C 4.910156 -21.722656 4.753906 -21.511719 4.753906 -20.9375 L 4.753906 -0.785156 C 4.753906 -0.210938 4.910156 0 5.523438 0 L 7.535156 0 C 8.28125 0 9.011719 -0.652344 9.011719 -1.457031 L 9.011719 -9.125 L 10.832031 -9.125 L 10.832031 -1.4375 C 10.832031 -0.632812 11.542969 0.0195312 12.289062 0.0195312 L 14.324219 0.0195312 C 14.9375 0.0195312 15.089844 -0.191406 15.089844 -0.785156 L 15.089844 -20.9375 C 15.089844 -21.511719 14.9375 -21.722656 14.304688 -21.722656 L 12.289062 -21.722656 C 11.542969 -21.722656 10.832031 -21.070312 10.832031 -20.265625 L 10.832031 -12.578125 L 9.011719 -12.578125 L 9.011719 -20.246094 C 9.011719 -21.070312 8.300781 -21.722656 7.535156 -21.722656 Z M 5.523438 -21.722656 "/></g></g></g><g fill="#998763" fill-opacity="1"><g transform="translate(188.885967, 248.296619)"><g><path d="M 4.792969 -3.988281 C 4.792969 -1.628906 6.789062 0.421875 10.046875 0.421875 C 13.230469 0.421875 15.300781 -1.648438 15.300781 -3.988281 L 15.300781 -17.8125 C 15.300781 -20.191406 13.289062 -22.203125 10.027344 -22.203125 C 6.863281 -22.203125 4.792969 -20.171875 4.792969 -17.8125 Z M 9.050781 -17.640625 C 9.050781 -18.082031 9.472656 -18.523438 10.027344 -18.523438 C 10.621094 -18.523438 11.042969 -18.0625 11.042969 -17.640625 L 11.042969 -4.121094 C 11.042969 -3.738281 10.660156 -3.242188 10.085938 -3.242188 C 9.492188 -3.242188 9.050781 -3.644531 9.050781 -4.121094 Z M 9.050781 -17.640625 "/></g></g></g><g fill="#998763" fill-opacity="1"><g transform="translate(205.921674, 248.296619)"><g><path d="M 7.535156 0 C 8.28125 0 9.011719 -0.652344 9.011719 -1.457031 L 9.011719 -7.019531 L 9.914062 -7.019531 C 13.113281 -7.019531 15.242188 -8.992188 15.242188 -11.410156 L 15.242188 -17.332031 C 15.242188 -19.75 13.210938 -21.722656 10.085938 -21.722656 L 5.523438 -21.722656 C 4.910156 -21.722656 4.753906 -21.511719 4.753906 -20.9375 L 4.753906 -0.785156 C 4.753906 -0.210938 4.910156 0 5.523438 0 Z M 9.011719 -10.566406 L 9.011719 -18.175781 L 9.988281 -18.175781 C 10.582031 -18.175781 11.003906 -17.714844 11.003906 -17.292969 L 11.003906 -11.445312 C 11.003906 -11.042969 10.582031 -10.566406 10.066406 -10.566406 Z M 9.011719 -10.566406 "/></g></g></g></svg>