<svg xmlns="http://www.w3.org/2000/svg" xmlns:xlink="http://www.w3.org/1999/xlink" width="100" zoomAndPan="magnify" viewBox="0 0 75 74.999997" height="100" preserveAspectRatio="xMidYMid meet" version="1.0"><defs><clipPath id="710e1f1dbb"><path d="M 7.5 13.441406 L 69.75 13.441406 L 69.75 64.441406 L 7.5 64.441406 Z M 7.5 13.441406 " clip-rule="nonzero"/></clipPath></defs><g clip-path="url(#710e1f1dbb)"><path fill="#d9d9d9" d="M 68.578125 29.625 L 37.417969 29.625 L 21.621094 13.863281 C 21.199219 13.441406 20.488281 13.46875 20.035156 13.921875 L 18.082031 15.871094 C 17.625 16.324219 17.601562 17.03125 18.023438 17.453125 L 30.222656 29.625 L 8.667969 29.625 C 8.027344 29.625 7.507812 30.144531 7.507812 30.785156 L 7.507812 35.28125 C 7.507812 35.925781 8.027344 36.445312 8.667969 36.445312 L 11.941406 36.445312 L 15.140625 58.929688 C 15.140625 58.929688 16.011719 64.441406 19.210938 64.441406 L 58.039062 64.441406 C 61.238281 64.441406 62.109375 58.929688 62.109375 58.929688 L 65.308594 36.445312 L 68.582031 36.445312 C 69.222656 36.445312 69.742188 35.925781 69.742188 35.28125 L 69.742188 30.785156 C 69.742188 30.144531 69.21875 29.625 68.578125 29.625 Z M 25.464844 56.753906 C 25.464844 57.3125 25.007812 57.769531 24.445312 57.769531 L 22.285156 57.769531 C 21.722656 57.769531 21.269531 57.3125 21.269531 56.753906 L 21.269531 45.464844 C 21.269531 44.902344 21.722656 44.449219 22.285156 44.449219 L 24.445312 44.449219 C 25.007812 44.449219 25.464844 44.902344 25.464844 45.464844 Z M 35.636719 56.753906 C 35.636719 57.3125 35.179688 57.769531 34.621094 57.769531 L 32.457031 57.769531 C 31.894531 57.769531 31.441406 57.3125 31.441406 56.753906 L 31.441406 45.464844 C 31.441406 44.902344 31.894531 44.449219 32.457031 44.449219 L 34.621094 44.449219 C 35.179688 44.449219 35.636719 44.902344 35.636719 45.464844 Z M 45.808594 56.753906 C 45.808594 57.3125 45.351562 57.769531 44.792969 57.769531 L 42.628906 57.769531 C 42.066406 57.769531 41.613281 57.3125 41.613281 56.753906 L 41.613281 45.464844 C 41.613281 44.902344 42.066406 44.449219 42.628906 44.449219 L 44.792969 44.449219 C 45.351562 44.449219 45.808594 44.902344 45.808594 45.464844 Z M 55.980469 56.753906 C 55.980469 57.3125 55.523438 57.769531 54.964844 57.769531 L 52.800781 57.769531 C 52.242188 57.769531 51.785156 57.3125 51.785156 56.753906 L 51.785156 45.464844 C 51.785156 44.902344 52.242188 44.449219 52.800781 44.449219 L 54.964844 44.449219 C 55.523438 44.449219 55.980469 44.902344 55.980469 45.464844 Z M 35.375 32.097656 C 35.375 31.609375 35.773438 31.210938 36.261719 31.210938 C 36.753906 31.210938 37.152344 31.609375 37.152344 32.097656 C 37.152344 32.585938 36.753906 32.984375 36.261719 32.984375 C 35.769531 32.984375 35.375 32.585938 35.375 32.097656 Z M 35.375 32.097656 " fill-opacity="1" fill-rule="nonzero"/></g></svg>